<svg viewBox="0 0 100 100" fill="none" xmlns="http://www.w3.org/2000/svg">
  <rect x="0" y="0" width="100" height="100" rx="18" fill="#1A1A1A" />
  <rect x="6" y="6" width="88" height="88" rx="14" fill="#EDE8D0" />
  <line x1="20" y1="6" x2="20" y2="94" stroke="#1A1A1A" stroke-width="2.5" />
  <line x1="80" y1="6" x2="80" y2="94" stroke="#1A1A1A" stroke-width="2.5" />
  <line x1="6" y1="80" x2="94" y2="80" stroke="#1A1A1A" stroke-width="2.5" />
  <line x1="6" y1="20" x2="94" y2="20" stroke="#1A1A1A" stroke-width="2.5" />
  <line x1="50" y1="6" x2="50" y2="94" stroke="#1A1A1A" stroke-width="1.5" />
  <circle cx="20" cy="80" r="10" fill="#C9382D" stroke="#1A1A1A" stroke-width="2.5" />
  <polygon points="20,80 35,65 35,95" fill="#2B5EA0" stroke="#1A1A1A" stroke-width="2.5" />
  <polygon points="35,65 65,35 75,45 45,75" fill="#F5B731" stroke="#1A1A1A" stroke-width="2.5" />
  <polygon points="45,75 75,45 85,55 55,85" fill="#F5B731" stroke="#1A1A1A" stroke-width="2.5" />
  <rect x="65" y="10" width="20" height="25" fill="#2B5EA0" stroke="#1A1A1A" stroke-width="2.5" />
  <polygon points="65,10 65,35 85,35" fill="#C9382D" stroke="#1A1A1A" stroke-width="2.5" />
  <line x1="35" y1="65" x2="45" y2="75" stroke="#1A1A1A" stroke-width="2.5" />
  <line x1="50" y1="50" x2="60" y2="60" stroke="#1A1A1A" stroke-width="2.5" />
  <line x1="65" y1="35" x2="75" y2="45" stroke="#1A1A1A" stroke-width="2.5" />
</svg>
